<svg xmlns="http://www.w3.org/2000/svg" viewBox="0 0 256 256">
  <defs>
    <linearGradient id="g" x1="0" y1="0" x2="1" y2="1">
      <stop offset="0" stop-color="#3ddc84"/>
      <stop offset="1" stop-color="#2bb8a3"/>
    </linearGradient>
  </defs>
  <!-- Tropfen -->
  <path fill="url(#g)" d="M128 14
    C128 14 42 116 42 170
    a86 86 0 0 0 172 0
    C214 116 128 14 128 14 Z"/>
  <!-- Setzling (dunkler Cutout im Markenton) -->
  <g fill="#06130d" stroke="#06130d" stroke-linecap="round">
    <path fill="none" stroke-width="13" d="M121 210 C121 192 121 172 121 150"/>
    <path stroke-width="0" d="M112 150
      C112 114 142 94 184 94
      C184 132 152 152 112 150 Z"/>
    <path stroke-width="0" d="M130 180
      C130 152 106 138 72 138
      C72 168 96 182 130 180 Z"/>
  </g>
</svg>
